<?xml version="1.0" standalone="no"?>
<!DOCTYPE svg PUBLIC "-//W3C//DTD SVG 20010904//EN"
 "http://www.w3.org/TR/2001/REC-SVG-20010904/DTD/svg10.dtd">
<svg version="1.0" xmlns="http://www.w3.org/2000/svg"
 width="177.000000pt" height="233.000000pt" viewBox="0 0 177.000000 233.000000"
 preserveAspectRatio="xMidYMid meet">

<g transform="translate(0.000000,233.000000) scale(0.100000,-0.100000)"
fill="#000000" stroke="none">
<path d="M0 2284 l0 -45 30 21 c17 12 29 29 28 38 -2 14 4 16 30 14 18 -2 32
1 32 7 0 7 -24 11 -60 11 l-60 0 0 -46z"/>
<path d="M347 2323 c-12 -12 -7 -53 6 -53 7 0 29 11 48 25 22 17 42 24 57 20
12 -3 22 -1 22 5 0 11 -122 14 -133 3z"/>
<path d="M603 2318 c-6 -7 -13 -21 -16 -31 -4 -10 -15 -17 -24 -16 -10 0 -21
0 -25 -1 -5 -1 -20 -4 -35 -5 -47 -4 -257 -56 -268 -66 -12 -12 -38 -12 -30 1
3 6 1 10 -5 10 -6 0 -18 7 -27 15 -8 8 -19 12 -25 9 -6 -4 -6 -9 3 -14 26 -17
17 -37 -21 -49 -35 -10 -47 -21 -48 -45 0 -5 -6 -12 -14 -17 -10 -6 -10 -11
-1 -20 9 -9 20 -9 44 0 24 8 35 8 46 0 19 -17 -2 -39 -38 -39 -31 0 -39 -14
-15 -23 16 -7 68 16 85 37 8 10 5 16 -14 26 -14 8 -23 20 -21 27 6 15 -20 18
-29 3 -9 -15 -25 -12 -25 5 0 8 12 17 27 20 16 3 46 11 68 18 22 6 45 12 50
13 6 0 17 3 25 6 19 7 121 28 135 29 6 0 22 -3 38 -7 21 -5 27 -3 27 10 0 20
36 21 43 2 3 -8 16 -16 29 -18 22 -3 -136 -50 -174 -51 -10 -1 -18 -5 -18 -10
0 -5 -7 -7 -15 -3 -8 3 -15 1 -15 -5 0 -5 -19 -19 -42 -30 l-43 -20 44 5 c24
2 57 14 72 25 16 12 31 21 34 21 10 0 -39 -50 -49 -50 -6 0 -29 -9 -51 -20
-25 -13 -31 -18 -15 -15 14 3 36 8 50 11 14 3 33 12 42 21 10 9 18 13 18 8 0
-14 -43 -45 -62 -45 -10 0 -18 -4 -18 -9 0 -4 12 -6 28 -4 21 4 24 2 12 -6
-12 -9 -9 -11 16 -11 22 0 39 9 57 30 28 31 33 33 131 50 77 13 81 13 67 -4
-13 -15 -134 -47 -165 -43 -12 1 -24 -9 -35 -31 -10 -19 -26 -35 -41 -38 -42
-10 -53 -14 -47 -20 3 -3 31 0 64 6 32 6 63 12 70 14 6 1 46 -3 90 -9 66 -9
83 -9 108 5 16 8 32 18 35 22 7 8 60 -2 60 -12 0 -4 -9 -10 -21 -13 -27 -7
-15 -29 14 -26 40 3 44 -1 39 -26 -3 -18 0 -25 12 -25 12 0 16 -10 16 -43 0
-44 21 -77 49 -77 21 0 84 -32 104 -52 30 -31 19 -68 -26 -83 -21 -7 -46 -11
-56 -8 -10 3 -22 0 -25 -6 -4 -6 -20 -11 -36 -11 -16 0 -32 -4 -35 -10 -3 -5
-17 -10 -30 -10 -13 0 -27 -5 -31 -11 -3 -6 -16 -8 -28 -5 -11 2 -29 -1 -39
-9 -28 -21 -77 -1 -77 31 0 16 -8 27 -21 32 l-20 8 20 18 c28 26 26 33 -9 41
-35 8 -48 23 -26 31 9 3 16 10 16 16 0 10 -60 -21 -72 -37 -4 -5 -17 0 -31 13
-13 12 -28 22 -34 22 -6 0 -16 7 -23 15 -10 12 -10 15 4 15 22 0 20 9 -6 38
l-23 25 30 -7 c17 -3 66 -13 109 -22 78 -16 80 -17 148 -87 64 -66 68 -69 55
-36 -8 20 -36 63 -62 97 -40 52 -54 62 -94 71 -29 7 -57 8 -77 2 -54 -15 -125
-4 -156 26 l-28 27 0 -36 c0 -31 -3 -35 -20 -31 -11 3 -17 9 -14 14 3 5 0 9
-5 9 -6 0 -11 -4 -11 -10 0 -5 -10 -9 -22 -9 -19 1 -19 2 -5 6 11 3 16 11 13
19 -3 8 0 24 7 35 10 17 9 22 -5 33 -12 9 -14 16 -7 23 8 8 7 13 0 17 -14 9
-33 -2 -26 -15 4 -5 -3 -9 -14 -9 -25 0 -28 15 -5 24 8 3 12 10 9 16 -3 5 -1
10 6 10 10 0 10 3 2 11 -13 13 -36 3 -28 -12 4 -5 -3 -9 -14 -9 -25 0 -25 3
-1 -45 l21 -40 -28 -12 c-16 -7 -39 -12 -53 -12 -25 0 -25 0 -5 15 19 15 18
16 -15 10 -19 -4 -41 -7 -47 -8 -10 -1 -13 -62 -13 -260 0 -236 2 -259 18
-265 27 -11 42 -30 44 -58 1 -14 10 -33 20 -42 10 -9 18 -26 18 -38 0 -11 5
-26 10 -31 6 -6 8 -17 5 -25 -5 -14 -79 -49 -103 -49 -9 0 -12 -122 -12 -565
l0 -566 885 1 885 2 0 133 c0 109 -3 134 -15 139 -8 3 -15 12 -15 20 0 7 7 16
15 20 12 4 15 30 15 145 l0 141 -25 6 c-29 7 -24 24 7 24 21 0 21 0 -3 26 -22
23 -24 24 -36 8 -7 -10 -13 -12 -13 -6 0 9 -12 10 -39 6 -35 -6 -40 -4 -46 17
-5 13 -7 26 -6 29 4 9 -42 18 -92 19 -35 1 -49 -3 -54 -15 -3 -9 -8 -11 -12
-6 -6 11 -156 -32 -178 -50 -9 -7 -13 -7 -13 1 0 17 38 37 135 71 82 29 97 31
169 26 43 -4 88 -13 100 -21 42 -30 106 -12 106 31 0 19 -8 28 -34 39 -37 16
-59 12 -90 -14 -14 -11 -17 -12 -11 -2 6 11 3 13 -16 6 -25 -8 -60 -12 -144
-16 -55 -2 -236 -56 -247 -73 -11 -15 -10 6 1 22 4 7 73 36 152 65 119 42 154
51 203 49 33 -1 65 3 73 9 40 34 -24 91 -80 70 -16 -6 -27 -18 -27 -30 0 -14
-12 -23 -45 -34 -44 -15 -64 -9 -49 15 4 7 3 8 -4 4 -7 -4 -12 -3 -12 2 0 5
18 14 41 21 22 7 42 18 45 26 3 7 20 16 39 19 30 6 33 10 32 41 -1 51 22 71
70 59 35 -8 38 -12 41 -46 2 -26 9 -39 23 -43 13 -4 19 -15 19 -35 0 -16 5
-32 10 -35 6 -4 10 20 10 65 0 39 -4 69 -9 66 -12 -8 -47 25 -53 52 -8 28 9
29 39 0 20 -18 23 -19 23 -5 0 10 -11 27 -25 39 -17 14 -25 32 -25 52 l1 31
24 -28 25 -28 0 112 c0 110 0 112 -31 146 -35 41 -31 58 6 23 l25 -23 0 169 0
169 -34 23 c-19 13 -43 22 -53 20 -11 -1 -30 4 -44 13 -13 9 -37 19 -52 23
-37 9 -30 26 15 42 39 13 48 10 48 -16 0 -24 29 -48 39 -32 5 8 19 1 46 -21
27 -22 37 -26 32 -14 -4 10 -7 25 -7 33 0 11 -6 13 -21 9 -16 -5 -20 -3 -17 6
3 8 14 13 25 12 18 -2 21 4 22 49 0 36 -5 58 -17 72 -16 20 -16 20 1 7 16 -12
17 -10 17 38 0 43 -4 53 -25 67 -29 19 -32 32 -7 41 28 11 32 24 32 131 l0
102 -265 0 c-146 0 -265 -2 -265 -4 0 -2 29 -28 65 -57 36 -30 65 -57 65 -61
0 -12 -44 -10 -58 2 -9 7 -9 7 -2 -2 6 -7 10 -20 10 -30 0 -25 -22 -13 -88 49
-73 68 -93 79 -104 59 -8 -15 -12 -15 -39 1 -16 9 -29 23 -29 30 0 10 -33 13
-142 12 -79 -1 -132 -4 -118 -8 32 -9 36 -54 5 -60 -11 -2 -23 -8 -26 -13 -4
-7 -172 -48 -196 -48 -2 0 12 14 30 30 19 17 41 30 49 30 10 0 14 11 14 35 -1
32 -3 35 -32 35 -17 0 -36 -6 -41 -12z m317 -44 c0 -8 -9 -14 -20 -14 -19 0
-28 28 -13 43 9 9 33 -12 33 -29z m603 -112 c-3 -12 -9 -22 -14 -22 -5 0 -3
11 3 25 13 30 20 28 11 -3z m87 3 c0 -22 2 -24 26 -14 32 12 65 3 58 -16 -4
-9 -13 -11 -34 -5 -20 6 -35 4 -50 -7 -20 -14 -23 -14 -37 0 -21 21 -10 67 17
67 15 0 20 -7 20 -25z m-170 -20 c0 -8 -6 -15 -14 -15 -18 0 -39 27 -31 40 9
14 45 -6 45 -25z m145 -55 c15 -16 15 -20 3 -20 -8 0 -23 9 -33 20 -15 16 -15
20 -3 20 8 0 23 -9 33 -20z m95 10 c0 -5 -4 -10 -9 -10 -6 0 -13 5 -16 10 -3
6 1 10 9 10 9 0 16 -4 16 -10z m-900 -20 c0 -5 -2 -10 -4 -10 -3 0 -8 5 -11
10 -3 6 -1 10 4 10 6 0 11 -4 11 -10z m-385 -30 c-10 -11 -23 -20 -28 -20 -6
0 0 11 13 25 27 29 42 25 15 -5z m953 4 c34 -24 29 -48 -8 -40 -19 3 -29 2
-25 -4 9 -15 -8 -12 -33 6 -25 17 -29 34 -7 34 8 0 15 5 15 10 0 15 33 12 58
-6z m74 -1 c21 -19 24 -43 5 -43 -17 0 -59 44 -50 53 11 11 25 8 45 -10z
m-618 -34 c-24 -27 -29 -16 -8 16 10 16 20 23 22 16 2 -7 -4 -21 -14 -32z
m443 9 c33 -31 29 -40 -14 -32 -89 16 -97 41 -19 53 6 0 20 -9 33 -21z m-308
-6 c8 -15 86 -37 210 -58 7 -2 34 -7 60 -13 25 -5 65 -13 87 -16 34 -5 57 -20
118 -77 42 -38 76 -74 76 -80 0 -6 -35 21 -77 59 -88 79 -102 85 -268 113
-148 25 -155 25 -155 2 0 -10 -3 -22 -7 -25 -10 -11 -33 13 -33 35 0 10 -5 16
-10 13 -6 -3 -7 -18 -4 -32 5 -19 3 -24 -7 -21 -8 3 -14 17 -15 31 -1 14 -7
33 -14 42 -8 10 -9 15 -1 15 6 0 11 7 11 15 0 21 17 19 29 -3z m-95 -17 c-9
-14 -19 -23 -22 -20 -5 4 26 45 35 45 2 0 -4 -11 -13 -25z m840 -139 c16 -13
25 -29 22 -35 -11 -18 -33 -13 -39 9 -3 11 -17 24 -31 30 -14 5 -26 16 -26 23
0 7 -16 27 -35 43 -19 16 -35 33 -35 37 0 7 50 -30 144 -107z m-182 32 c-7 -7
-12 -8 -12 -2 0 6 3 14 7 17 3 4 9 5 12 2 2 -3 -1 -11 -7 -17z m-522 -9 c0 -5
-4 -9 -10 -9 -5 0 -10 7 -10 16 0 8 5 12 10 9 6 -3 10 -10 10 -16z m560 -74
c45 -50 -10 -12 -60 41 l-45 48 40 -31 c22 -17 51 -43 65 -58z m-1490 71 c0
-2 -7 -6 -15 -10 -8 -3 -15 -1 -15 4 0 6 7 10 15 10 8 0 15 -2 15 -4z m320
-104 c-14 -2 -20 -9 -16 -18 3 -8 9 -21 12 -29 11 -26 -12 -16 -25 11 -11 26
-12 26 -31 9 -20 -18 -20 -17 -20 56 l0 73 51 -49 c44 -44 48 -50 29 -53z
m-286 73 c-7 -16 -24 -21 -24 -6 0 8 7 13 27 20 1 1 0 -6 -3 -14z m67 6 c-8
-5 -10 -14 -6 -22 6 -9 4 -11 -8 -6 -9 3 -18 1 -20 -6 -2 -7 -8 -8 -13 -4 -5
5 -1 13 9 18 9 6 15 14 12 20 -4 5 4 9 17 9 17 0 19 -3 9 -9z m1145 -56 c2
-44 14 -82 30 -96 11 -9 14 -8 14 4 0 20 36 41 57 33 8 -3 23 -1 34 5 16 8 27
6 47 -7 35 -22 62 -53 62 -70 0 -8 9 -19 20 -26 11 -7 20 -19 20 -27 0 -9 8
-12 23 -9 19 4 28 -3 45 -35 16 -29 18 -37 7 -33 -9 3 -15 0 -15 -7 0 -8 -16
-21 -35 -30 -38 -18 -48 -39 -15 -30 11 3 20 0 20 -6 0 -20 -36 -12 -59 13
l-22 24 28 10 c15 6 22 11 15 11 -7 1 -22 -4 -32 -9 -16 -9 -29 -1 -80 51
l-61 61 -50 -6 c-120 -16 -127 -45 -36 -143 71 -77 113 -133 99 -133 -16 0
-162 166 -162 184 0 9 -5 16 -11 16 -12 0 -28 15 -51 48 -22 32 -12 102 23
169 40 76 39 74 62 71 17 -2 22 -10 23 -33z m-1246 -6 c0 -5 -4 -9 -8 -9 -5 0
-9 7 -9 15 0 8 4 12 9 9 4 -3 8 -9 8 -15z m1500 -34 c7 -8 8 -15 2 -15 -5 0
-15 7 -22 15 -7 8 -8 15 -2 15 5 0 15 -7 22 -15z m102 -14 c18 -16 30 -32 26
-36 -4 -4 -24 9 -44 29 -44 43 -29 49 18 7z m-1437 -100 c-6 -10 -67 -23 -127
-26 -34 -2 -36 -1 -27 17 9 16 18 19 47 15 21 -3 30 -2 22 1 -9 3 2 10 30 17
36 9 47 9 53 -2 4 -7 6 -17 2 -22z m1441 24 c10 -26 -1 -35 -13 -10 -6 14 -7
25 -2 25 5 0 12 -7 15 -15z m28 -1 c3 -8 2 -12 -4 -9 -6 3 -10 10 -10 16 0 14
7 11 14 -7z m-244 -124 c12 -8 11 -10 -7 -10 -12 0 -25 5 -28 10 -8 13 15 13
35 0z m-549 -39 c24 -12 58 -39 74 -60 19 -25 41 -41 60 -45 23 -5 51 -32 123
-120 94 -118 111 -156 75 -174 -36 -19 -384 -122 -411 -122 -39 0 -48 10 -136
143 -62 93 -77 123 -73 144 3 18 -3 38 -19 62 -70 104 32 206 197 197 42 -2
83 -11 110 -25z m804 -71 c3 -5 1 -10 -4 -10 -6 0 -11 5 -11 10 0 6 2 10 4 10
3 0 8 -4 11 -10z m-1447 -67 c105 -178 193 -335 190 -338 -9 -9 -28 16 -80
105 -30 52 -65 111 -76 130 -53 89 -91 170 -79 170 3 0 23 -30 45 -67z m-148
-252 c0 -5 -6 -14 -14 -20 -11 -9 -16 -9 -21 0 -4 6 -1 15 6 20 18 11 29 11
29 0z m1448 -18 c-2 -13 -43 -31 -158 -69 -180 -59 -158 -52 -240 -75 -36 -10
-110 -33 -165 -53 -186 -65 -357 -116 -391 -116 -35 0 -36 0 -88 92 -38 68
-15 68 25 0 22 -37 41 -58 56 -60 12 -2 129 31 260 73 234 76 344 111 565 180
62 20 114 38 117 40 11 11 22 4 19 -12z m-1254 -69 c9 -25 7 -34 -9 -34 -12 0
-35 28 -35 44 0 14 38 5 44 -10z m31 -102 c-3 -3 -11 0 -18 7 -9 10 -8 11 6 5
10 -3 15 -9 12 -12z m-60 -11 c-10 -8 -132 -51 -147 -51 -4 0 -8 4 -8 10 0 5
28 18 63 29 66 21 107 27 92 12z m103 -26 c16 -34 15 -35 -6 -35 -11 0 -24 11
-30 25 -16 34 -15 35 6 35 11 0 24 -11 30 -25z m709 -7 c7 -6 13 -17 13 -24 0
-8 6 -14 13 -15 14 0 -91 -37 -110 -38 -21 -1 -16 76 5 88 18 12 59 6 79 -11z
m547 16 c26 -10 20 -44 -8 -44 -34 0 -53 25 -29 39 22 13 18 12 37 5z m-1334
-43 c0 -5 -7 -11 -15 -15 -9 -3 -15 0 -15 9 0 8 7 15 15 15 8 0 15 -4 15 -9z
m-35 -21 c3 -11 3 -24 0 -30 -7 -12 -3 -12 19 -4 13 5 14 9 5 20 -9 11 -7 14
10 14 14 0 20 -4 15 -11 -5 -9 1 -10 22 -4 42 12 77 12 81 -1 2 -5 -37 -23
-87 -39 -72 -23 -93 -26 -103 -16 -9 10 -8 14 6 22 9 6 14 15 11 21 -4 6 0 14
7 19 10 6 8 9 -9 9 -13 0 -20 4 -17 10 10 17 33 11 40 -10z m-48 -15 c12 -27
4 -39 -20 -29 -8 3 -17 -1 -20 -9 -3 -9 1 -14 11 -13 23 1 22 -28 0 -32 -21
-4 -47 50 -28 56 6 2 15 15 20 28 12 31 22 30 37 -1z m1528 -60 c0 -24 -24
-30 -49 -12 -25 18 -12 39 22 35 19 -2 27 -9 27 -23z m-1495 -39 c-1 -5 2 -12
7 -15 14 -10 32 -49 26 -55 -12 -12 -25 -6 -19 9 3 8 0 15 -7 15 -13 0 -38 46
-29 55 8 8 24 1 22 -9z m110 -1 c0 -8 -7 -15 -15 -15 -16 0 -20 12 -8 23 11
12 23 8 23 -8z m-150 -15 c0 -5 -7 -10 -15 -10 -8 0 -15 5 -15 10 0 6 7 10 15
10 8 0 15 -4 15 -10z m100 0 c0 -5 -7 -10 -15 -10 -8 0 -15 5 -15 10 0 6 7 10
15 10 8 0 15 -4 15 -10z m1244 -6 c31 -12 17 -30 -19 -26 -34 4 -42 11 -28 25
8 9 27 9 47 1z m-1174 -14 c0 -5 -7 -10 -15 -10 -8 0 -15 5 -15 10 0 6 7 10
15 10 8 0 15 -4 15 -10z m-160 -10 c0 -5 -7 -10 -15 -10 -8 0 -15 5 -15 10 0
6 7 10 15 10 8 0 15 -4 15 -10z m110 -5 c0 -8 -7 -15 -15 -15 -8 0 -15 7 -15
15 0 8 7 15 15 15 8 0 15 -7 15 -15z m1144 -24 c-5 -5 -44 -23 -87 -39 -63
-25 -78 -27 -75 -14 2 9 33 25 83 42 78 26 99 29 79 11z m-1242 -6 c0 -5 -5
-11 -11 -13 -6 -2 -11 4 -11 13 0 9 5 15 11 13 6 -2 11 -8 11 -13z m1366 -7
c-17 -26 -57 -34 -88 -18 -30 16 -24 30 8 18 22 -9 35 -7 58 4 39 21 39 21 22
-4z m-1128 -3 c0 -8 -4 -15 -9 -15 -13 0 -22 16 -14 24 11 11 23 6 23 -9z
m-155 -5 c3 -5 19 -10 36 -10 16 0 29 -4 29 -9 0 -6 13 -24 29 -41 l29 -32 56
13 c41 9 60 9 68 1 20 -20 1 -37 -67 -61 l-68 -24 -17 23 c-14 19 -20 21 -39
10 -17 -9 -26 -9 -37 0 -16 14 -38 86 -30 99 3 5 -1 12 -10 15 -8 3 -12 10 -9
16 8 13 22 13 30 0z m-35 -30 c0 -16 -18 -30 -41 -30 -17 0 -10 48 9 53 23 5
32 -1 32 -23z"/>
<path d="M1501 1693 c0 -6 -4 -20 -7 -30 -5 -14 -4 -15 5 -7 7 7 11 20 8 30
-3 11 -5 14 -6 7z"/>
<path d="M683 1450 c-18 -11 -33 -27 -33 -36 0 -18 38 -84 48 -84 4 0 53 12
110 26 99 26 102 28 89 48 -42 64 -148 87 -214 46z"/>
<path d="M854 1255 c-19 -16 -19 -16 1 -28 10 -7 39 -32 63 -56 30 -30 47 -40
54 -33 7 7 4 20 -11 40 -11 17 -21 39 -21 51 0 37 -52 52 -86 26z"/>
<path d="M1028 853 c7 -3 16 -2 19 1 4 3 -2 6 -13 5 -11 0 -14 -3 -6 -6z"/>
<path d="M330 586 c0 -9 5 -16 10 -16 6 0 10 4 10 9 0 6 -4 13 -10 16 -5 3
-10 -1 -10 -9z"/>
<path d="M78 2269 c-16 -11 -28 -25 -28 -30 0 -17 21 -9 53 21 37 34 18 41
-25 9z"/>
<path d="M160 2265 c-7 -8 -8 -15 -2 -15 5 0 15 7 22 15 7 8 8 15 2 15 -5 0
-15 -7 -22 -15z"/>
<path d="M246 2265 c-11 -8 -15 -15 -9 -15 6 0 16 7 23 15 16 19 11 19 -14 0z"/>
<path d="M21 2208 c0 -10 -5 -18 -11 -18 -5 0 -10 -4 -10 -10 0 -5 11 -10 25
-10 14 0 25 -4 25 -10 0 -5 5 -10 11 -10 6 0 9 7 5 15 -3 8 -1 15 4 15 6 0 10
9 10 20 0 19 -1 20 -24 5 -23 -15 -25 -15 -29 2 -4 16 -5 17 -6 1z"/>
<path d="M110 2200 c0 -5 5 -10 10 -10 6 0 10 5 10 10 0 6 -4 10 -10 10 -5 0
-10 -4 -10 -10z"/>
<path d="M187 2132 c-10 -10 -14 -22 -10 -25 11 -12 23 -8 23 8 0 9 9 15 22
15 17 0 19 -3 10 -12 -7 -7 -12 -15 -12 -19 0 -11 62 9 78 25 12 12 10 13 -11
9 -14 -3 -28 0 -31 6 -11 17 -51 13 -69 -7z"/>
<path d="M110 2070 c0 -5 7 -10 15 -10 8 0 15 5 15 10 0 6 -7 10 -15 10 -8 0
-15 -4 -15 -10z"/>
<path d="M210 2060 c0 -5 7 -10 15 -10 8 0 15 5 15 10 0 6 -7 10 -15 10 -8 0
-15 -4 -15 -10z"/>
<path d="M180 2040 c0 -5 12 -10 28 -9 24 0 25 1 7 9 -27 12 -35 12 -35 0z"/>
<path d="M275 1980 c3 -5 10 -10 16 -10 5 0 9 5 9 10 0 6 -7 10 -16 10 -8 0
-12 -4 -9 -10z"/>
<path d="M237 1964 c-3 -3 -3 -12 0 -20 6 -17 39 -19 49 -3 11 18 -33 39 -49
23z"/>
<path d="M423 1933 c-35 -9 -63 -20 -63 -24 0 -4 8 -15 17 -24 13 -14 27 -16
67 -11 28 4 56 13 62 21 6 8 20 15 30 15 10 1 30 7 44 15 l25 14 -25 1 c-14 0
-41 2 -60 4 -19 3 -63 -3 -97 -11z"/>
<path d="M274 1918 c-3 -4 2 -8 10 -8 8 0 17 4 20 8 3 5 -2 9 -10 9 -8 0 -17
-4 -20 -9z"/>
<path d="M780 1629 c0 -5 5 -7 10 -4 6 3 10 8 10 11 0 2 -4 4 -10 4 -5 0 -10
-5 -10 -11z"/>
<path d="M0 1280 c0 -13 11 -13 30 0 12 8 11 10 -7 10 -13 0 -23 -4 -23 -10z"/>
</g>
</svg>
