<?xml version="1.0" standalone="no"?>
<!DOCTYPE svg PUBLIC "-//W3C//DTD SVG 20010904//EN"
 "http://www.w3.org/TR/2001/REC-SVG-20010904/DTD/svg10.dtd">
<svg version="1.0" xmlns="http://www.w3.org/2000/svg"
 width="178.000000pt" height="241.000000pt" viewBox="0 0 178.000000 241.000000"
 preserveAspectRatio="xMidYMid meet">

<g transform="translate(0.000000,241.000000) scale(0.100000,-0.100000)"
fill="#000000" stroke="none">
<path d="M0 1788 l0 -623 59 3 59 4 -3 36 c-1 21 0 26 2 12 8 -41 20 -49 61
-39 20 5 76 9 125 9 l87 0 2 73 1 72 6 -73 c4 -45 11 -76 20 -81 24 -15 172
-43 196 -37 24 6 24 7 27 172 3 147 5 167 21 176 10 5 22 21 27 34 9 22 15 24
67 23 121 -1 138 -8 185 -74 l43 -60 3 -107 c3 -97 6 -108 22 -108 10 0 22 -5
25 -10 15 -24 25 -6 25 45 0 30 5 55 10 55 6 0 10 -28 10 -65 l0 -65 40 0 40
0 -17 -27 c-13 -20 -14 -28 -5 -31 8 -2 4 -13 -13 -34 -23 -27 -29 -45 -26
-74 1 -6 -6 -27 -14 -47 -26 -63 -91 -89 -113 -44 -9 18 -11 19 -11 4 -1 -15
-6 -17 -29 -12 -26 5 -30 1 -65 -64 -63 -116 -72 -100 -12 19 15 29 25 54 22
56 -2 2 -24 7 -50 10 l-46 7 -6 -37 c-4 -20 -12 -39 -17 -42 -6 -4 -7 -36 -3
-80 5 -52 4 -74 -3 -72 -6 2 -20 -15 -31 -36 -16 -31 -18 -42 -8 -48 10 -7 82
-13 113 -9 6 1 28 -15 48 -35 26 -26 34 -39 26 -44 -7 -4 -10 -12 -6 -18 3 -6
3 -17 0 -26 -4 -11 -11 -13 -31 -5 -31 11 -46 12 -39 0 3 -5 21 -12 40 -15 20
-4 48 -13 63 -21 40 -21 49 -18 27 8 -36 41 -6 95 43 76 29 -11 49 -47 34 -62
-21 -21 -11 -27 39 -27 28 0 50 -3 50 -6 0 -3 -10 -14 -22 -24 l-23 -18 35
-14 c19 -8 83 -32 143 -53 60 -22 107 -45 107 -52 0 -7 -5 -13 -11 -13 -6 0
-97 31 -202 69 -247 88 -238 86 -248 70 -7 -11 -12 -9 -24 8 -17 25 -165 78
-196 70 -10 -3 -19 -1 -19 4 0 11 -37 12 -44 1 -3 -5 17 -16 44 -26 27 -10 54
-24 61 -32 6 -8 23 -14 38 -14 26 0 97 -37 88 -46 -4 -4 -40 6 -181 53 -27 9
-65 16 -85 15 -25 -1 -32 1 -21 8 11 7 9 11 -13 19 -16 6 -37 11 -47 11 -10 0
-20 4 -22 10 -1 5 -48 25 -103 45 -55 20 -135 48 -178 64 -43 15 -83 34 -90
41 -10 10 -8 12 7 6 126 -45 233 -75 247 -71 10 3 21 -1 26 -9 7 -12 179 -76
205 -76 5 0 1 11 -7 24 -17 26 -155 83 -173 72 -6 -3 -12 -1 -14 5 -2 6 -25
15 -51 20 -27 5 -55 15 -63 24 -9 8 -20 12 -26 9 -5 -4 -33 5 -61 19 -29 13
-74 33 -102 42 -27 10 -44 20 -37 23 17 5 15 17 -5 37 -9 9 -24 49 -34 88
l-18 72 0 -452 -1 -453 565 0 c459 0 578 3 628 14 112 27 320 74 437 101 63
14 123 28 132 31 16 5 18 22 18 164 l0 158 -51 17 c-29 10 -81 19 -116 21 -35
2 -68 6 -73 9 -6 4 -10 -3 -10 -14 0 -24 -36 -52 -57 -44 -11 4 -8 8 9 17 13
6 25 23 26 36 2 14 1 22 -4 18 -4 -4 -12 -4 -18 1 -6 5 -47 19 -91 31 -44 12
-89 28 -101 35 -31 20 -143 55 -175 55 -15 0 -29 5 -31 11 -4 13 -101 39 -108
29 -3 -4 -13 -4 -24 -1 -17 7 -16 9 9 39 28 33 45 41 45 20 1 -37 65 -63 128
-52 l32 6 0 94 c0 91 1 95 25 106 19 9 28 9 37 0 9 -9 6 -12 -14 -12 -33 0
-38 -14 -38 -109 0 -78 0 -78 25 -73 22 4 25 9 25 48 0 51 4 52 90 29 30 -8
67 -15 82 -15 29 0 32 -7 43 -81 5 -42 9 -47 35 -51 21 -3 30 0 30 9 0 7 7 13
15 13 8 0 15 9 15 20 0 26 16 33 138 61 l102 23 0 118 0 118 -27 1 -28 1 25 7
25 7 3 234 c1 141 -1 237 -7 243 -6 6 -27 14 -48 18 -38 8 -38 8 10 6 l47 -2
0 447 0 448 -890 0 -890 0 0 -622z m898 400 c7 -7 11 -35 10 -67 l-2 -56 -3
50 c-5 55 -14 72 -46 78 -19 4 -19 4 4 6 14 0 30 -4 37 -11z m-103 -3 c-23 -8
-85 -10 -85 -3 0 4 21 8 48 7 26 0 43 -2 37 -4z m-122 -15 c-27 -11 -32 -30
-36 -145 l-3 -90 -2 100 c-2 107 10 146 46 144 13 0 11 -3 -5 -9z m177 -95 c0
-7 3 -21 7 -31 5 -13 3 -16 -10 -11 -9 3 -17 2 -17 -3 0 -6 -10 -10 -22 -9
l-23 0 23 10 c26 10 25 35 -1 33 -9 -1 -15 2 -12 6 3 5 -1 11 -7 14 -7 4 -3 4
10 2 12 -2 22 0 22 5 0 4 7 6 15 3 8 -4 15 -12 15 -19z m-380 -24 c5 -11 9
-44 8 -73 -1 -45 -2 -47 -5 -13 -6 73 -12 85 -38 85 -14 0 -25 5 -25 10 0 18
49 11 60 -9z m1024 3 c11 -11 15 -32 14 -67 l-1 -52 -4 45 c-5 55 -17 70 -54
70 -16 0 -29 5 -29 10 0 16 57 12 74 -6z m-1224 0 c0 -4 -8 -13 -17 -20 -15
-10 -19 -34 -24 -126 l-5 -113 -2 110 c-2 86 1 115 14 133 14 21 34 30 34 16z
m99 2 c-10 -9 -79 -14 -79 -5 0 5 19 9 42 9 23 0 39 -2 37 -4z m1000 0 c-10
-9 -109 -14 -104 -6 4 6 29 10 57 10 28 0 49 -2 47 -4z m-159 -19 c-24 -12
-25 -18 -31 -117 l-5 -105 -2 102 c-2 107 7 133 46 133 12 0 9 -4 -8 -13z
m-433 -17 c-4 -17 -1 -19 31 -15 l37 5 -30 -13 c-16 -8 -36 -12 -42 -9 -16 5
-17 -10 -3 -24 7 -7 3 -17 -12 -30 -18 -15 -20 -15 -9 -2 19 26 7 47 -27 46
-25 -1 -29 -5 -29 -29 0 -16 4 -29 9 -29 4 0 8 5 8 11 0 5 5 7 11 3 8 -4 7 -9
-2 -15 -27 -17 -37 -9 -36 29 1 38 28 79 46 68 5 -4 12 -2 16 4 4 6 11 8 16 5
5 -4 9 -1 9 4 0 6 3 11 6 11 4 0 4 -9 1 -20z m117 -211 c-9 -11 -22 -19 -27
-19 -6 0 -1 9 11 20 19 18 22 32 24 118 l2 97 3 -99 c3 -82 1 -102 -13 -117z
m-494 166 c28 -14 30 -19 30 -73 0 -74 -14 -123 -45 -156 -30 -32 -30 -33 -7
-33 39 0 50 -4 56 -18 4 -12 -4 -15 -45 -15 -41 0 -50 3 -45 15 3 8 -3 20 -12
27 -31 23 -62 70 -61 92 1 15 3 13 10 -10 5 -16 19 -40 33 -53 28 -26 52 -19
80 24 22 34 34 159 17 179 -20 24 -65 29 -104 10 -33 -16 -36 -21 -40 -66 l-4
-48 1 52 c1 50 3 54 36 70 43 22 63 22 100 3z m449 6 c16 -10 6 -71 -12 -71
-40 1 -57 13 -54 39 3 19 10 26 25 25 12 0 19 3 16 8 -7 10 7 10 25 -1z m509
-32 c28 -23 25 -22 -20 0 -24 12 -31 12 -53 -3 -14 -9 -25 -22 -25 -29 0 -7
-9 -18 -20 -25 -23 -14 -26 -41 -7 -62 10 -12 9 -12 -5 -1 -10 7 -18 21 -18
31 0 15 10 30 65 93 20 23 51 22 83 -4z m-988 -14 c6 -8 13 -45 13 -82 l2 -68
-40 0 -40 0 2 68 c1 67 13 97 38 97 7 0 18 -7 25 -15z m1061 -24 c47 -47 37
-92 -20 -90 l-36 2 35 6 c29 5 36 11 38 34 2 19 -1 27 -12 27 -9 0 -16 4 -16
9 0 5 -7 17 -16 25 -8 9 -13 16 -9 16 4 0 20 -13 36 -29z m-664 -13 c-3 -8 -6
-5 -6 6 -1 11 2 17 5 13 3 -3 4 -12 1 -19z m-21 0 c4 -7 4 -10 -1 -6 -4 4 -14
3 -21 -3 -8 -7 -14 -6 -20 2 -4 7 -3 9 4 5 6 -3 13 -2 17 4 8 13 12 13 21 -2z
m754 -193 c-12 -14 -50 -27 -50 -16 0 3 10 11 23 16 20 9 22 19 27 100 l5 90
3 -88 c2 -54 -1 -94 -8 -102z m-1020 75 c0 -88 -2 -102 -21 -121 -11 -11 -23
-18 -26 -16 -2 3 5 15 16 26 18 18 21 33 21 116 0 52 2 95 5 95 3 0 5 -45 5
-100z m164 58 c4 -17 16 -30 33 -36 25 -9 25 -11 6 -11 -27 -1 -53 34 -52 69
1 26 4 22 13 -22z m706 23 c0 -11 2 -25 5 -33 3 -7 -1 -22 -9 -33 -14 -19 -15
-19 -35 -1 -11 10 -18 23 -14 29 3 6 10 0 15 -12 6 -18 11 -21 21 -12 18 14
10 74 -9 67 -8 -3 -14 -1 -14 4 0 6 9 10 20 10 13 0 20 -7 20 -19z m-505 -61
c4 -6 -14 -10 -47 -9 -49 2 -50 2 -18 9 52 11 58 11 65 0z m347 -87 c5 -6 22
-14 36 -16 26 -4 26 -4 -3 -6 -40 -1 -55 15 -54 59 2 33 2 34 6 5 3 -16 9 -35
15 -42z m-957 -19 c3 -12 15 -25 27 -28 17 -5 19 -9 9 -13 -21 -9 -51 34 -50
71 1 19 3 23 6 11 2 -11 6 -30 8 -41z m1191 -1 c-7 -7 -98 -5 -105 3 -2 2 22
4 54 4 32 0 55 -3 51 -7z m-1006 -43 c0 -11 -21 -11 -65 0 -27 7 -25 8 18 9
26 0 47 -3 47 -9z m238 -8 c2 -7 -7 -12 -22 -12 -43 0 -51 -29 -57 -230 l-5
-185 -2 187 c-2 197 3 228 42 246 25 12 38 10 44 -6z m202 -2 c0 -6 -33 -10
-80 -10 -47 0 -80 4 -80 10 0 6 33 10 80 10 47 0 80 -4 80 -10z m155 -4 c49
-21 65 -59 65 -161 0 -50 -4 -85 -10 -85 -6 0 -10 33 -10 80 0 116 -21 150
-91 150 -19 0 -29 5 -29 15 0 19 30 19 75 1z m-862 -96 c-28 -11 -32 -30 -36
-150 l-3 -95 -2 108 c-2 117 6 147 41 146 l22 0 -22 -9z m117 0 c11 -7 8 -10
-15 -9 -16 0 -39 4 -50 9 -16 7 -14 9 15 9 19 0 42 -4 50 -9z m112 -17 c14
-12 18 -29 16 -72 -1 -45 -2 -48 -5 -16 -6 73 -12 84 -46 94 -27 8 -28 9 -8
10 14 1 33 -6 43 -16z m1043 7 c-3 -5 -15 -10 -25 -10 -42 0 -50 -24 -50 -156
0 -82 -4 -124 -11 -124 -7 0 -10 42 -7 131 3 123 4 132 27 150 24 20 77 27 66
9z m195 -12 c0 -7 -18 -9 -52 -4 -29 3 -63 6 -75 6 -13 0 -23 3 -23 8 0 4 34
6 75 4 44 -2 75 -8 75 -14z m-1402 -273 c53 -9 61 -13 27 -14 -74 -2 -75 0
-73 113 l2 101 3 -97 4 -97 37 -6z m48 157 c-10 -2 -22 0 -28 6 -6 6 0 7 19 4
21 -5 23 -7 9 -10z m1225 -2 c19 0 32 -6 36 -17 10 -27 23 -33 75 -33 53 0 98
-14 98 -31 0 -6 7 -26 16 -45 15 -31 15 -37 -1 -86 -10 -29 -21 -57 -25 -61
-4 -5 -57 -1 -119 7 -138 20 -128 20 -134 -4 -6 -25 -45 -27 -54 -3 -4 10 2
23 15 34 20 16 22 26 22 126 0 112 4 128 28 118 7 -3 27 -5 43 -5z m-1153 -92
l3 -88 -33 1 c-30 2 -31 2 -5 6 27 4 27 5 27 83 0 73 -1 79 -22 83 -20 5 -20
5 2 4 24 -2 25 -4 28 -89z m-78 67 c7 -8 11 -15 9 -16 -44 -10 -75 5 -48 22
19 12 25 11 39 -6z m31 -102 c11 -13 -7 -13 -29 1 -11 6 -11 11 0 24 11 13 11
14 -1 7 -8 -5 -12 -4 -9 1 3 5 9 18 13 29 8 17 10 15 13 -15 2 -19 8 -40 13
-47z m-56 8 c-6 -5 -25 10 -25 20 0 5 6 4 14 -3 8 -7 12 -15 11 -17z m1134
-195 c7 -8 28 -18 47 -22 19 -3 34 -10 34 -15 0 -15 -64 3 -87 24 -25 22 -40
78 -27 99 6 9 11 -1 14 -29 4 -23 12 -48 19 -57z m-71 22 c20 -20 14 -38 -13
-38 -27 0 -54 35 -32 43 21 9 33 7 45 -5z m390 -89 c19 -6 6 -7 -40 -4 -37 3
-78 10 -90 15 -29 13 90 2 130 -11z m-308 -149 c0 -4 -25 -2 -55 3 -30 6 -55
13 -55 17 0 4 25 2 55 -3 30 -6 55 -13 55 -17z m125 -36 c20 -21 25 -38 25
-76 0 -30 -4 -47 -10 -43 -5 3 -10 28 -10 54 0 52 -10 67 -57 81 l-28 8 28 1
c18 1 37 -8 52 -25z m-300 6 c3 -5 1 -10 -4 -10 -6 0 -11 5 -11 10 0 6 2 10 4
10 3 0 8 -4 11 -10z m-365 -180 c-40 -40 -70 -47 -70 -17 0 19 20 43 65 75
l40 29 3 -23 c2 -16 -9 -35 -38 -64z m366 -107 c10 -7 24 -13 31 -13 7 0 13
-5 13 -11 0 -16 -42 0 -62 23 -10 11 -18 34 -17 52 l1 31 8 -35 c5 -18 16 -40
26 -47z m-242 28 c4 -5 -3 -7 -14 -4 -23 6 -26 13 -6 13 8 0 17 -4 20 -9z
m166 -6 c0 -8 -4 -15 -9 -15 -13 0 -22 16 -14 24 11 11 23 6 23 -9z m-913 -56
c32 -12 63 -26 70 -31 7 -5 17 -7 22 -4 5 4 13 1 16 -5 4 -6 18 -8 31 -5 15 4
23 2 22 -4 -2 -6 38 -25 87 -42 50 -16 94 -34 99 -39 6 -5 16 -9 23 -9 13 0
75 -26 141 -59 54 -26 10 -25 -65 3 -37 14 -115 43 -173 66 -58 23 -118 46
-135 52 -82 28 -211 81 -219 89 -17 16 20 10 81 -12z m1175 -22 c26 -7 51 -17
55 -21 11 -12 -64 2 -102 19 -38 17 -14 18 47 2z m93 3 c-3 -5 -12 -10 -18
-10 -7 0 -6 4 3 10 19 12 23 12 15 0z m-1062 -27 c-7 -2 -19 -2 -25 0 -7 3 -2
5 12 5 14 0 19 -2 13 -5z m-163 -54 c19 -7 53 -20 75 -30 22 -9 65 -27 95 -39
52 -21 126 -54 198 -88 68 -32 1 -20 -75 14 -17 8 -89 36 -160 63 -162 62
-219 87 -227 99 -6 11 35 3 94 -19z m353 -16 c-7 -2 -19 -2 -25 0 -7 3 -2 5
12 5 14 0 19 -2 13 -5z m917 -33 c0 -10 7 -23 15 -30 22 -18 9 -30 -33 -30
-46 0 -75 16 -49 26 9 3 17 14 17 23 0 23 19 41 36 34 8 -3 14 -13 14 -23z
m-209 -23 c-10 -9 -11 -8 -5 6 3 10 9 15 12 12 3 -3 0 -11 -7 -18z m-405 -12
c25 -19 15 -19 -27 0 -25 10 -29 14 -13 15 11 0 29 -7 40 -15z m-639 -20 c12
-9 41 -22 64 -30 23 -8 77 -33 121 -55 44 -22 83 -38 88 -35 10 6 47 -22 38
-30 -3 -3 -26 3 -50 14 -24 11 -56 23 -72 27 -15 3 -55 20 -89 36 -33 16 -85
39 -114 50 -29 10 -55 24 -58 29 -10 15 49 10 72 -6z m548 -35 c8 -13 -5 -13
-25 0 -13 8 -13 10 2 10 9 0 20 -4 23 -10z m-478 -117 c3 -7 -4 -9 -16 -6 -12
3 -18 9 -15 15 7 11 26 6 31 -9z m-32 -22 c8 -13 136 -81 152 -81 8 0 16 6 19
14 4 10 21 14 57 13 96 -1 127 5 127 24 0 16 3 17 25 7 14 -6 25 -14 25 -18 0
-4 -37 -17 -82 -30 -46 -12 -113 -31 -149 -41 -72 -21 -150 -25 -179 -9 -22
12 -55 93 -47 115 7 17 42 21 52 6z"/>
<path d="M825 2070 c3 -5 8 -10 11 -10 2 0 4 5 4 10 0 6 -5 10 -11 10 -5 0 -7
-4 -4 -10z"/>
<path d="M745 2010 c-3 -5 -12 -7 -20 -3 -9 3 -15 -1 -15 -10 0 -10 8 -13 25
-9 14 2 25 11 25 18 0 16 -6 18 -15 4z"/>
<path d="M801 1954 c5 -6 6 -13 4 -16 -3 -3 5 -3 18 -1 33 6 30 28 -4 28 -19
0 -24 -3 -18 -11z"/>
<path d="M348 1923 c-21 -5 -24 -33 -4 -33 7 0 16 9 19 20 3 11 4 19 4 19 -1
-1 -10 -3 -19 -6z"/>
<path d="M312 1835 c3 -37 5 -40 33 -40 28 0 30 3 33 43 l3 43 -36 -3 c-36 -2
-36 -3 -33 -43z m41 -5 c-3 -11 -8 -20 -12 -20 -4 0 -7 9 -8 20 -1 11 4 20 12
20 8 0 11 -7 8 -20z"/>
<path d="M1431 1308 c0 -74 2 -80 12 -53 27 69 36 77 75 71 98 -14 162 -17
162 -8 0 5 -33 13 -74 17 -64 6 -77 10 -91 31 -11 18 -24 24 -50 24 l-35 0 1
-82z"/>
<path d="M1480 1302 c0 -11 35 -18 148 -28 45 -4 72 -2 72 4 0 13 -28 19 -132
27 -58 5 -88 4 -88 -3z"/>
<path d="M1458 1251 c-5 -14 -12 -40 -15 -57 l-5 -31 115 -12 c64 -7 120 -11
125 -7 12 7 37 95 29 103 -4 3 -59 11 -123 17 l-116 12 -10 -25z"/>
<path d="M226 1372 c-2 -4 4 -8 14 -8 10 0 16 4 14 8 -3 4 -9 8 -14 8 -5 0
-11 -4 -14 -8z"/>
<path d="M708 1534 c-5 -4 -8 -92 -8 -196 l0 -188 68 1 c46 0 61 3 47 9 -11 5
-32 9 -47 9 -16 1 -28 6 -28 12 0 7 16 8 48 3 80 -12 163 -9 173 7 5 8 8 59 7
114 l-3 100 -30 3 c-40 4 -55 26 -55 79 l0 43 -47 0 c-27 0 -64 3 -83 6 -19 3
-38 2 -42 -2z m155 -169 c31 -4 57 -11 57 -16 0 -5 -10 -7 -22 -5 -13 3 -53 8
-90 11 -38 4 -68 10 -68 15 0 5 15 7 33 5 17 -3 58 -7 90 -10z m5 -61 c81 -10
63 -26 -20 -18 -89 8 -133 22 -73 23 22 1 64 -2 93 -5z m50 -78 c11 -12 -5
-12 -90 -2 -54 6 -88 14 -88 21 0 9 22 8 86 -1 47 -7 89 -15 92 -18z"/>
<path d="M896 1475 c4 -40 16 -55 47 -55 20 0 14 15 -26 64 l-24 29 3 -38z"/>
<path d="M655 1449 c-9 -42 5 -309 16 -309 5 0 9 77 9 170 0 161 -9 212 -25
139z"/>
<path d="M768 1123 c7 -3 16 -2 19 1 4 3 -2 6 -13 5 -11 0 -14 -3 -6 -6z"/>
<path d="M759 1073 c-13 -17 -13 -17 6 -3 11 8 22 16 24 17 2 2 0 3 -6 3 -6 0
-17 -8 -24 -17z"/>
<path d="M736 1023 c-6 -14 -5 -15 5 -6 7 7 10 15 7 18 -3 3 -9 -2 -12 -12z"/>
<path d="M672 991 c2 -7 7 -12 11 -12 12 1 9 15 -3 20 -7 2 -11 -2 -8 -8z"/>
<path d="M702 965 c-7 -14 -12 -32 -12 -40 0 -8 -5 -15 -11 -15 -6 0 -8 9 -4
20 10 30 -14 24 -26 -6 -5 -15 -6 -36 -3 -48 4 -11 8 -28 9 -36 3 -35 21 -10
47 65 32 92 30 85 20 85 -5 0 -14 -11 -20 -25z"/>
<path d="M796 961 c-7 -11 87 -33 109 -25 8 3 15 1 15 -5 0 -6 7 -11 15 -11
33 0 12 20 -37 35 -59 17 -94 19 -102 6z"/>
<path d="M1240 752 c0 -39 14 -62 37 -62 7 0 13 7 13 16 0 11 -6 15 -20 11
-17 -4 -20 0 -20 28 0 29 3 33 23 29 20 -4 21 -4 2 5 -32 15 -35 13 -35 -27z"/>
<path d="M1318 763 c7 -3 16 -2 19 1 4 3 -2 6 -13 5 -11 0 -14 -3 -6 -6z"/>
<path d="M1268 753 c7 -3 16 -2 19 1 4 3 -2 6 -13 5 -11 0 -14 -3 -6 -6z"/>
<path d="M1370 740 c0 -15 7 -20 28 -21 l27 -1 -25 -8 -25 -8 28 -1 c18 -1 27
4 27 14 0 9 -9 15 -25 15 -14 0 -25 5 -25 11 0 6 9 9 20 6 11 -3 20 -1 20 4 0
5 -11 9 -25 9 -18 0 -25 -5 -25 -20z"/>
<path d="M1350 714 c0 -11 -6 -14 -20 -9 -16 5 -20 2 -20 -19 0 -19 5 -26 19
-26 11 0 22 -6 24 -12 3 -7 6 8 6 35 1 26 -1 47 -4 47 -3 0 -5 -7 -5 -16z"/>
<path d="M1382 669 c2 -16 11 -23 31 -25 22 -2 27 1 23 12 -3 9 -6 20 -6 25 0
5 -12 9 -26 9 -20 0 -25 -4 -22 -21z"/>
<path d="M318 633 c6 -2 18 -2 25 0 6 3 1 5 -13 5 -14 0 -19 -2 -12 -5z"/>
</g>
</svg>
