<svg xmlns="http://www.w3.org/2000/svg" xmlns:xlink="http://www.w3.org/1999/xlink" width="82" zoomAndPan="magnify" viewBox="0 0 61.5 40.499999" height="54" preserveAspectRatio="xMidYMid meet" version="1.0" style="background-color: black;">
    <defs>
        <clipPath id="4cbebda515">
            <path d="M 0.128906 0 L 60.878906 0 L 60.878906 40.007812 L 0.128906 40.007812 Z M 0.128906 0 " clip-rule="nonzero"/>
        </clipPath>
        <clipPath id="d30bf45143">
            <path d="M 21.109375 0 L 60.375 0 L 60.375 39.265625 L 21.109375 39.265625 Z M 21.109375 0 " clip-rule="nonzero"/>
        </clipPath>
        <clipPath id="4d50f737f6">
            <path d="M 0.128906 17.433594 L 7.605469 17.433594 L 7.605469 23.96875 L 0.128906 23.96875 Z M 0.128906 17.433594 " clip-rule="nonzero"/>
        </clipPath>
        <clipPath id="9ecfd06a6d">
            <path d="M 3.863281 23.96875 L 7.597656 17.433594 L 0.128906 17.433594 Z M 3.863281 23.96875 " clip-rule="nonzero"/>
        </clipPath>
    </defs>
    <rect width="100%" height="100%" fill="#000000"/>
    <g clip-path="url(#4cbebda515)">
        <path fill="#000000" d="M 0.128906 0 L 60.878906 0 L 60.878906 40.007812 L 0.128906 40.007812 Z M 0.128906 0 " fill-opacity="1" fill-rule="nonzero"/>
    </g>
    <g clip-path="url(#d30bf45143)">
        <path fill="#eefb03" d="M 54.644531 5.753906 C 50.933594 2.042969 46 0 40.753906 0 C 35.507812 0 30.574219 2.042969 26.863281 5.753906 C 23.152344 9.464844 21.109375 14.398438 21.109375 19.644531 C 21.109375 24.890625 23.152344 29.824219 26.863281 33.535156 C 30.574219 37.246094 35.507812 39.289062 40.753906 39.289062 C 46 39.289062 50.933594 37.246094 54.644531 33.535156 C 58.355469 29.824219 60.398438 24.890625 60.398438 19.644531 C 60.398438 14.398438 58.355469 9.464844 54.644531 5.753906 Z M 27.753906 6.644531 C 31.226562 3.171875 35.84375 1.261719 40.753906 1.261719 C 45.664062 1.261719 50.28125 3.171875 53.753906 6.644531 C 57.222656 10.117188 59.136719 14.734375 59.136719 19.644531 C 59.136719 23.726562 57.8125 27.605469 55.375 30.792969 C 53.429688 28.074219 50.328125 26.472656 46.960938 26.472656 L 34.542969 26.472656 C 31.175781 26.472656 28.074219 28.074219 26.132812 30.792969 C 23.691406 27.605469 22.371094 23.726562 22.371094 19.644531 C 22.371094 14.734375 24.28125 10.117188 27.753906 6.644531 Z M 40.753906 25.433594 C 45.800781 25.433594 49.90625 21.328125 49.90625 16.28125 C 49.90625 11.234375 45.800781 7.128906 40.753906 7.128906 C 35.707031 7.128906 31.601562 11.234375 31.601562 16.28125 C 31.601562 21.328125 35.707031 25.433594 40.753906 25.433594 Z M 40.753906 25.433594 " fill-opacity="1" fill-rule="nonzero"/>
    </g>
</svg>
